<svg width="268" height="106" viewBox="0 0 268 106" fill="none" xmlns="http://www.w3.org/2000/svg">
<rect x="0.360107" y="0.359985" width="266.96" height="105.28" fill="#6C889C"/>
<rect x="6" y="6" width="255.68" height="94" fill="#2C3D4D"/>
<path d="M44.0847 78.7641L62.4147 25.845H71.6678L47.8741 90H40.3834L16.6338 25.845H25.8428L44.0847 78.7641ZM80.3041 90V25.845H101.278C108.24 25.845 113.468 27.2844 116.964 30.1631C120.489 33.0419 122.252 37.3013 122.252 42.9413C122.252 45.9375 121.4 48.5959 119.696 50.9166C117.992 53.2078 115.672 54.985 112.734 56.2481C116.2 57.2175 118.932 59.0681 120.93 61.8C122.957 64.5025 123.97 67.7338 123.97 71.4938C123.97 77.2513 122.105 81.775 118.374 85.065C114.643 88.355 109.371 90 102.556 90H80.3041ZM88.7641 59.9934V83.0822H102.732C106.668 83.0822 109.767 82.0688 112.029 80.0419C114.32 77.9856 115.466 75.1656 115.466 71.5819C115.466 63.8563 111.265 59.9934 102.864 59.9934H88.7641ZM88.7641 53.2078H101.542C105.243 53.2078 108.196 52.2825 110.399 50.4319C112.631 48.5813 113.747 46.0697 113.747 42.8972C113.747 39.3722 112.719 36.8166 110.663 35.2303C108.607 33.6147 105.478 32.8069 101.278 32.8069H88.7641V53.2078ZM171.954 73.2563H145.076L139.039 90H130.315L154.814 25.845H162.216L186.759 90H178.079L171.954 73.2563ZM147.632 66.2944H169.442L158.515 36.2878L147.632 66.2944ZM244.701 90H236.197L203.899 40.5619V90H195.395V25.845H203.899L236.285 75.5034V25.845H244.701V90Z" fill="#6C889C"/>
</svg>
